<svg xmlns="http://www.w3.org/2000/svg" viewBox="0 0 700 670" width="700" height="670">
<style>
 text{font-family:"Malgun Gothic",Segoe UI,sans-serif}
 .fr{fill:#fff;stroke:#d9d9d9}
 .frn{font-size:9px;fill:#8c8c8c}
 .frs{font-size:9px;fill:#8c8c8c}
 .noodle{fill:none;stroke:#0d99ff;stroke-width:1.6;marker-end:url(#nh)}
</style>
<defs><marker id="nh" markerWidth="8" markerHeight="8" refX="7" refY="2.6" orient="auto">
 <path d="M0,0 L7,2.6 L0,5.2 Z" fill="#0d99ff"/></marker></defs>
<rect width="700" height="670" fill="#e5e5e5"/>
<rect x="0" y="0" width="700" height="36" fill="#2c2c2c"/>
<rect x="10" y="11" width="14" height="14" rx="2" fill="#fff" opacity=".9"/>
<path d="M14 17 h6 l-.8 5 h-4.4 z M15.4 17 v-1.4 a1.9 1.9 0 0 1 3.8 0 v1.4" stroke="#2b4c7e" stroke-width="1" fill="none"/>
<g fill="#b3b3b3" font-size="10.5"><text x="40" y="22">↖</text><text x="62" y="22">▦</text><text x="84" y="22">◻</text>
 <text x="106" y="22">✎</text><text x="128" y="22">T</text><text x="150" y="22">💬</text></g>
<line x1="34" y1="8" x2="34" y2="28" stroke="#4a4a4a"/><line x1="170" y1="8" x2="170" y2="28" stroke="#4a4a4a"/>
<text x="350" y="22" font-size="10.5" fill="#e8e8e8" text-anchor="middle">데일리마켓 — 프로토타입 / SC-03 상품 상세</text>
<rect x="582" y="9" width="46" height="18" rx="3" fill="#0d99ff"/>
<text x="605" y="22" font-size="10" fill="#fff" text-anchor="middle">▶ Present</text>
<text x="686" y="22" font-size="10" fill="#b3b3b3" text-anchor="end">100%</text>
<text x="140" y="66" class="frn" fill="#0d99ff">SC-03 상품 상세</text>
<text x="560" y="66" class="frs">375 × 812 · 100%</text>
<rect x="140" y="76" width="420" height="546" fill="#fff" stroke="#d9d9d9"/>

<rect x="140" y="76" width="420" height="46" fill="#2b4c7e"/>
<rect x="156" y="88" width="20" height="20" rx="3" fill="#fff"/>
<path d="M161 99 h10 l-1.3 7.5 h-7.4 z M163 99 v-2 a2.9 2.9 0 0 1 5.8 0 v2" stroke="#2b4c7e" stroke-width="1.2" fill="none"/>
<text x="182" y="104" font-size="13" fill="#fff">DAILY</text>
<text x="226" y="104" font-size="13" fill="#fff" font-weight="700">MARKET</text>
<text x="306" y="104" font-size="11.5" fill="#fff" font-weight="700">상품</text>
<rect x="304" y="110" width="26" height="2" fill="#fff"/>
<text x="352" y="104" font-size="11.5" fill="#fff" opacity=".65">장바구니</text>
<text x="418" y="104" font-size="11.5" fill="#fff" opacity=".65">마이페이지</text>
<rect x="490" y="88" width="58" height="20" rx="10" fill="#fff" opacity=".9"/>
<text x="500" y="102" font-size="9" fill="#2b4c7e">검색</text>

<text x="160" y="142" font-size="10.5" fill="#6b7280">홈 › 식품 › 과일</text>
<rect x="160" y="152" width="180" height="180" fill="#eef1f5" stroke="#dde2e8"/>
<text x="250" y="248" font-size="11" fill="#aab" text-anchor="middle">상품 이미지 (대표)</text>
<rect x="160" y="338" width="40" height="40" fill="#eef1f5" stroke="#0d99ff" stroke-width="1.5"/>
<rect x="206" y="338" width="40" height="40" fill="#eef1f5" stroke="#dde2e8"/>
<rect x="252" y="338" width="40" height="40" fill="#eef1f5" stroke="#dde2e8"/>

<text x="358" y="170" font-size="16" font-weight="700" fill="#111">사과 1kg (부사)</text>
<text x="358" y="192" font-size="11" fill="#6b7280">국내산 · 산지직송</text>
<text x="358" y="222" font-size="22" font-weight="700" fill="#e8590c">12,900원</text>
<text x="470" y="222" font-size="12" fill="#6b7280">15,900</text>
<line x1="470" y1="218" x2="524" y2="218" stroke="#6b7280"/>
<rect x="358" y="234" width="42" height="16" rx="3" fill="#e8590c"/>
<text x="379" y="246" font-size="9.5" fill="#fff" text-anchor="middle">19%</text>
<text x="358" y="272" font-size="11" fill="#111">배송비 3,000원 (30,000원 이상 무료)</text>
<text x="358" y="292" font-size="11" fill="#111">재고 24개</text>

<text x="358" y="322" font-size="11" fill="#111">중량 선택 *</text>
<rect x="358" y="330" width="186" height="36" rx="4" fill="#fff" stroke="#aaa"/>
<text x="370" y="353" font-size="12" fill="#111">1kg (5~6과)</text><text x="528" y="353" font-size="10" fill="#6b7280">▾</text>
<text x="358" y="392" font-size="11" fill="#111">수량</text>
<rect x="358" y="400" width="110" height="36" rx="4" fill="#fff" stroke="#aaa"/>
<text x="374" y="423" font-size="14" fill="#111">−</text>
<text x="410" y="423" font-size="13" fill="#111">1</text>
<text x="446" y="423" font-size="14" fill="#111">+</text>
<text x="480" y="423" font-size="11" fill="#6b7280">최대 24</text>

<rect x="160" y="462" width="230" height="44" rx="4" fill="#2b4c7e"/>
<text x="275" y="490" font-size="14" fill="#fff" text-anchor="middle">장바구니 담기</text>
<rect x="400" y="462" width="144" height="44" rx="4" fill="#fff" stroke="#2b4c7e"/>
<text x="472" y="490" font-size="14" fill="#2b4c7e" text-anchor="middle">바로구매</text>

<line x1="160" y1="530" x2="544" y2="530" stroke="#ddd"/>
<text x="176" y="552" font-size="12" fill="#111" font-weight="700">상세정보</text>
<rect x="172" y="558" width="56" height="2" fill="#2b4c7e"/>
<text x="252" y="552" font-size="12" fill="#6b7280">리뷰 (12)</text>
<text x="340" y="552" font-size="12" fill="#6b7280">상품 문의</text>
<text x="176" y="588" font-size="11" fill="#6b7280">데일리마켓 · 신선식품 당일배송</text>

<rect x="140" y="76" width="420" height="546" fill="none" stroke="#0d99ff" stroke-width="1.6"/>
<rect x="137" y="73" width="6" height="6" fill="#fff" stroke="#0d99ff"/>
<rect x="557" y="73" width="6" height="6" fill="#fff" stroke="#0d99ff"/>
<rect x="137" y="619" width="6" height="6" fill="#fff" stroke="#0d99ff"/>
<rect x="557" y="619" width="6" height="6" fill="#fff" stroke="#0d99ff"/>

<path d="M126 152 L138 152 M126 332 L138 332 M132 152 L132 332" stroke="#f24822" stroke-width="1"/>
<rect x="92" y="235" width="30" height="14" rx="2" fill="#f24822"/>
<text x="107" y="246" font-size="8.5" fill="#fff" text-anchor="middle">180</text>
<path d="M120 242 L126 242" stroke="#f24822" stroke-width="1"/>
<path d="M160 518 L160 534 M390 518 L390 534 M160 528 L390 528" stroke="#f24822" stroke-width="1"/>
<rect x="248" y="521" width="54" height="14" rx="2" fill="#f24822"/>
<text x="275" y="532" font-size="8.5" fill="#fff" text-anchor="middle">230 × 44</text>
</svg>