<svg xmlns="http://www.w3.org/2000/svg" viewBox="0 0 900 330" width="900" height="330"><style>text{font-family:"Malgun Gothic",sans-serif}rect,line,path{stroke-width:1}</style><defs><marker id="on" markerWidth="10" markerHeight="8" refX="9" refY="4" orient="auto" markerUnits="userSpaceOnUse"><path d="M1,1 L9,4 L1,7" fill="none" stroke="#000"/></marker><marker id="og" markerWidth="10" markerHeight="8" refX="9" refY="4" orient="auto" markerUnits="userSpaceOnUse"><path d="M1,1 L9,4 L1,7" fill="none" stroke="#888"/></marker></defs><rect width="900" height="330" fill="#fff"/><text x="20" y="28" font-size="14" font-weight="700" fill="#000" text-anchor="start">표 한 장 — 부분마다 이름이 있습니다</text><line x1="20" y1="38" x2="880" y2="38" stroke="#ccc"/><rect x="230" y="96" width="128" height="30" fill="#f2f2f2" stroke="#000"/><text x="294.0" y="115.5" font-size="11.5" font-weight="700" fill="#000" text-anchor="middle">member_id</text><rect x="358" y="96" width="128" height="30" fill="#f2f2f2" stroke="#000"/><text x="422.0" y="115.5" font-size="11.5" font-weight="700" fill="#000" text-anchor="middle">member_nm</text><rect x="486" y="96" width="128" height="30" fill="#f2f2f2" stroke="#000"/><text x="550.0" y="115.5" font-size="11.5" font-weight="700" fill="#000" text-anchor="middle">phone</text><rect x="614" y="96" width="128" height="30" fill="#f2f2f2" stroke="#000"/><text x="678.0" y="115.5" font-size="11.5" font-weight="700" fill="#000" text-anchor="middle">join_dt</text><rect x="230" y="126" width="128" height="30" fill="#fff" stroke="#000"/><text x="294.0" y="145.5" font-size="11.5" font-weight="400" fill="#000" text-anchor="middle">hong</text><rect x="358" y="126" width="128" height="30" fill="#fff" stroke="#000"/><text x="422.0" y="145.5" font-size="11.5" font-weight="400" fill="#000" text-anchor="middle">홍길동</text><rect x="486" y="126" width="128" height="30" fill="#fff" stroke="#000"/><text x="550.0" y="145.5" font-size="11.5" font-weight="400" fill="#000" text-anchor="middle">010-1111-2222</text><rect x="614" y="126" width="128" height="30" fill="#fff" stroke="#000"/><text x="678.0" y="145.5" font-size="11.5" font-weight="400" fill="#000" text-anchor="middle">2026-03-01</text><rect x="230" y="156" width="128" height="30" fill="#fff" stroke="#000"/><text x="294.0" y="175.5" font-size="11.5" font-weight="400" fill="#000" text-anchor="middle">kim</text><rect x="358" y="156" width="128" height="30" fill="#fff" stroke="#000"/><text x="422.0" y="175.5" font-size="11.5" font-weight="400" fill="#000" text-anchor="middle">김영희</text><rect x="486" y="156" width="128" height="30" fill="#fff" stroke="#000"/><text x="550.0" y="175.5" font-size="11.5" font-weight="400" fill="#000" text-anchor="middle">010-3333-4444</text><rect x="614" y="156" width="128" height="30" fill="#fff" stroke="#000"/><text x="678.0" y="175.5" font-size="11.5" font-weight="400" fill="#000" text-anchor="middle">2026-03-01</text><rect x="230" y="186" width="128" height="30" fill="#fff" stroke="#000"/><text x="294.0" y="205.5" font-size="11.5" font-weight="400" fill="#000" text-anchor="middle">lee</text><rect x="358" y="186" width="128" height="30" fill="#fff" stroke="#000"/><text x="422.0" y="205.5" font-size="11.5" font-weight="400" fill="#000" text-anchor="middle">이철수</text><rect x="486" y="186" width="128" height="30" fill="#fff" stroke="#000"/><text x="550.0" y="205.5" font-size="11.5" font-weight="400" fill="#000" text-anchor="middle">010-5555-6666</text><rect x="614" y="186" width="128" height="30" fill="#fff" stroke="#000"/><text x="678.0" y="205.5" font-size="11.5" font-weight="400" fill="#000" text-anchor="middle">2026-03-02</text><text x="230" y="80" font-size="12" font-weight="700" fill="#000" text-anchor="start">member   ← 테이블 이름</text><line x1="200" y1="111" x2="226" y2="111" stroke="#888" marker-end="url(#og)"/><text x="36" y="115" font-size="11.5" font-weight="700" fill="#000" text-anchor="start">칼럼 이름(열 이름)</text><line x1="200" y1="171" x2="226" y2="171" stroke="#888" marker-end="url(#og)"/><text x="36" y="175" font-size="11.5" font-weight="700" fill="#000" text-anchor="start">행 · 레코드 — 한 사람</text><text x="36" y="193" font-size="11" font-weight="400" fill="#555" text-anchor="start">표에서 «가로 한 줄»</text><line x1="294" y1="240" x2="294" y2="214" stroke="#888" marker-end="url(#og)"/><text x="294" y="258" font-size="11.5" font-weight="700" fill="#000" text-anchor="middle">기본키</text><text x="294" y="274" font-size="11" font-weight="400" fill="#555" text-anchor="middle">겹치지 않는 값</text><line x1="550" y1="240" x2="550" y2="214" stroke="#888" marker-end="url(#og)"/><text x="550" y="258" font-size="11.5" font-weight="700" fill="#000" text-anchor="middle">칼럼(열)</text><text x="550" y="274" font-size="11" font-weight="400" fill="#555" text-anchor="middle">표에서 «세로 한 줄»</text><line x1="678" y1="240" x2="678" y2="214" stroke="#888" marker-end="url(#og)"/><text x="678" y="258" font-size="11.5" font-weight="700" fill="#000" text-anchor="middle">값</text><text x="678" y="274" font-size="11" font-weight="400" fill="#555" text-anchor="middle">칸 하나에 하나씩</text><line x1="20" y1="296" x2="880" y2="296" stroke="#ccc"/><text x="36" y="318" font-size="11.5" font-weight="400" fill="#555" text-anchor="start">표(테이블)가 여럿 모인 것이 데이터베이스 하나입니다</text></svg>