<svg xmlns="http://www.w3.org/2000/svg" viewBox="0 0 900 240" width="900" height="240"><style>text{font-family:"Malgun Gothic",sans-serif}rect,line,path{stroke-width:1}</style><defs><marker id="on" markerWidth="10" markerHeight="8" refX="9" refY="4" orient="auto" markerUnits="userSpaceOnUse"><path d="M1,1 L9,4 L1,7" fill="none" stroke="#000"/></marker><marker id="og" markerWidth="10" markerHeight="8" refX="9" refY="4" orient="auto" markerUnits="userSpaceOnUse"><path d="M1,1 L9,4 L1,7" fill="none" stroke="#bbb"/></marker></defs><rect width="900" height="240" fill="#fff"/><text x="20" y="28" font-size="14" font-weight="700" fill="#000" text-anchor="start">1단계. 1단 메뉴를 뽑습니다</text><line x1="20" y1="38" x2="880" y2="38" stroke="#ccc"/><rect x="380" y="30" width="140" height="46" rx="0" fill="#fff" stroke="#000"/><text x="450.0" y="57.5" font-size="12.5" font-weight="400" fill="#000" text-anchor="middle">데일리마켓</text><line x1="450" y1="76" x2="450" y2="96" stroke="#000"/><line x1="165" y1="96" x2="735" y2="96" stroke="#000"/><line x1="165" y1="96" x2="165" y2="120" stroke="#000"/><line x1="355" y1="96" x2="355" y2="120" stroke="#000"/><line x1="545" y1="96" x2="545" y2="120" stroke="#000"/><line x1="735" y1="96" x2="735" y2="120" stroke="#000"/><rect x="90" y="120" width="150" height="46" rx="0" fill="#fff" stroke="#000"/><text x="165.0" y="147.5" font-size="12.5" font-weight="400" fill="#000" text-anchor="middle">전체 카테고리</text><rect x="280" y="120" width="150" height="46" rx="0" fill="#fff" stroke="#000"/><text x="355.0" y="147.5" font-size="12.5" font-weight="400" fill="#000" text-anchor="middle">신상품</text><rect x="470" y="120" width="150" height="46" rx="0" fill="#fff" stroke="#000"/><text x="545.0" y="147.5" font-size="12.5" font-weight="400" fill="#000" text-anchor="middle">베스트</text><rect x="660" y="120" width="150" height="46" rx="0" fill="#fff" stroke="#000"/><text x="735.0" y="147.5" font-size="12.5" font-weight="400" fill="#000" text-anchor="middle">마이페이지</text><text x="20" y="200" font-size="11.5" font-weight="400" fill="#555" text-anchor="start">흐름도에 나오는 화면이 모두 메뉴가 되지는 않습니다. 메뉴는 사용자가 아무 때나 눌러 들어가는 자리만 그립니다.</text><text x="20" y="220" font-size="11.5" font-weight="400" fill="#555" text-anchor="start">맨 위 서비스 이름은 홈으로 돌아가는 자리입니다. 로고를 누르면 메인으로 갑니다.</text></svg>