<svg xmlns="http://www.w3.org/2000/svg" viewBox="0 0 900 368" width="900" height="368"><style>text{font-family:"Malgun Gothic",sans-serif}rect,line,path,circle,ellipse{stroke-width:1}</style><defs><marker id="on" markerWidth="10" markerHeight="8" refX="9" refY="4" orient="auto" markerUnits="userSpaceOnUse"><path d="M1,1 L9,4 L1,7" fill="none" stroke="#000"/></marker><marker id="og" markerWidth="10" markerHeight="8" refX="9" refY="4" orient="auto" markerUnits="userSpaceOnUse"><path d="M1,1 L9,4 L1,7" fill="none" stroke="#bbb"/></marker></defs><rect width="900" height="368" fill="#fff"/><text x="20" y="28" font-size="14" font-weight="700" fill="#000" text-anchor="start">3단계. 흐름도의 화살표를 그대로 프레임 연결로 옮깁니다</text><line x1="20" y1="38" x2="880" y2="38" stroke="#ccc"/><text x="36" y="62" font-size="11" font-weight="700" fill="#555" text-anchor="start">화면 흐름도</text><rect x="60" y="72" width="200" height="44" rx="0" fill="#fff" stroke="#bbb"/><text x="160.0" y="98.5" font-size="12" font-weight="400" fill="#bbb" text-anchor="middle">SC-02 상품 목록</text><rect x="320" y="72" width="200" height="44" rx="0" fill="#fff" stroke="#bbb"/><text x="420.0" y="98.5" font-size="12" font-weight="400" fill="#bbb" text-anchor="middle">SC-03 상품 상세</text><rect x="580" y="72" width="200" height="44" rx="0" fill="#fff" stroke="#bbb"/><text x="680.0" y="98.5" font-size="12" font-weight="400" fill="#bbb" text-anchor="middle">SC-04 장바구니</text><line x1="260" y1="94" x2="320" y2="94" stroke="#bbb" marker-end="url(#og)"/><text x="290.0" y="86" font-size="10" font-weight="400" fill="#bbb" text-anchor="middle">상품 선택</text><line x1="520" y1="94" x2="580" y2="94" stroke="#bbb" marker-end="url(#og)"/><text x="550.0" y="86" font-size="10" font-weight="400" fill="#bbb" text-anchor="middle">담기</text><text x="450" y="144" font-size="11.5" font-weight="400" fill="#555" text-anchor="middle">화살표 하나가 연결 하나가 됩니다</text><text x="36" y="172" font-size="11" font-weight="700" fill="#555" text-anchor="start">Figma 캔버스</text><text x="60" y="190" font-size="10" font-weight="700" fill="#555" text-anchor="start">SC-02 상품 목록</text><rect x="60" y="198" width="200" height="110" rx="0" fill="#fff" stroke="#000"/><rect x="68" y="206" width="184" height="12" rx="2" fill="#eef1f5"/><rect x="68.0" y="224" width="56.333333333333336" height="28" rx="2" fill="#f4f5f7"/><rect x="129.33333333333334" y="224" width="56.333333333333336" height="28" rx="2" fill="#f4f5f7"/><rect x="190.66666666666669" y="224" width="56.333333333333336" height="28" rx="2" fill="#f4f5f7"/><rect x="68.0" y="258" width="56.333333333333336" height="28" rx="2" fill="#f4f5f7"/><rect x="129.33333333333334" y="258" width="56.333333333333336" height="28" rx="2" fill="#f4f5f7"/><rect x="190.66666666666669" y="258" width="56.333333333333336" height="28" rx="2" fill="#f4f5f7"/><text x="320" y="190" font-size="10" font-weight="700" fill="#555" text-anchor="start">SC-03 상품 상세</text><rect x="320" y="198" width="200" height="110" rx="0" fill="#fff" stroke="#000"/><rect x="328" y="206" width="184" height="12" rx="2" fill="#eef1f5"/><rect x="328" y="224" width="88.0" height="46" rx="2" fill="#f4f5f7"/><rect x="422.0" y="224" width="88.0" height="12" rx="2" fill="#f4f5f7"/><rect x="422.0" y="242" width="61.333333333333336" height="12" rx="2" fill="#f4f5f7"/><rect x="422.0" y="260" width="88.0" height="14" rx="2" fill="#f4f5f7"/><text x="580" y="190" font-size="10" font-weight="700" fill="#555" text-anchor="start">SC-04 장바구니</text><rect x="580" y="198" width="200" height="110" rx="0" fill="#fff" stroke="#000"/><rect x="588" y="206" width="184" height="12" rx="2" fill="#eef1f5"/><rect x="588" y="224" width="184" height="14" rx="2" fill="#f4f5f7"/><rect x="588" y="244" width="184" height="14" rx="2" fill="#f4f5f7"/><rect x="588" y="264" width="184" height="14" rx="2" fill="#f4f5f7"/><circle cx="260" cy="258" r="4" fill="#fff" stroke="#000"/><line x1="264" y1="258" x2="320" y2="258" stroke="#000" marker-end="url(#on)"/><text x="290.0" y="250" font-size="10" font-weight="400" fill="#000" text-anchor="middle">상품 선택</text><circle cx="520" cy="258" r="4" fill="#fff" stroke="#000"/><line x1="524" y1="258" x2="580" y2="258" stroke="#000" marker-end="url(#on)"/><text x="550.0" y="250" font-size="10" font-weight="400" fill="#000" text-anchor="middle">담기</text><text x="152" y="190" font-size="10" font-weight="700" fill="#000" text-anchor="start">▶ Flow starting point</text><text x="20" y="336" font-size="11.5" font-weight="400" fill="#555" text-anchor="start">연결선이 채점 17번의 직접 증거입니다. 정지된 그림을 여러 장 붙이면 이 선이 없습니다.</text><text x="20" y="356" font-size="11.5" font-weight="400" fill="#555" text-anchor="start">시작점을 지정해 두어야 재생했을 때 첫 화면부터 돌아갑니다.</text></svg>