<svg xmlns="http://www.w3.org/2000/svg" viewBox="0 0 900 300" width="900" height="300"><style>text{font-family:"Malgun Gothic",sans-serif}rect,line,path{stroke-width:1}</style><defs><marker id="on" markerWidth="10" markerHeight="8" refX="9" refY="4" orient="auto" markerUnits="userSpaceOnUse"><path d="M1,1 L9,4 L1,7" fill="none" stroke="#000"/></marker><marker id="og" markerWidth="10" markerHeight="8" refX="9" refY="4" orient="auto" markerUnits="userSpaceOnUse"><path d="M1,1 L9,4 L1,7" fill="none" stroke="#bbb"/></marker></defs><rect width="900" height="300" fill="#fff"/><text x="20" y="28" font-size="14" font-weight="700" fill="#000" text-anchor="start">내부 화면과 외부 화면 — 채점 19번이 이 구분을 봅니다</text><line x1="20" y1="38" x2="880" y2="38" stroke="#ccc"/><rect x="36" y="66" width="560" height="150" rx="0" fill="#fff" stroke="#000"/><text x="48" y="86" font-size="11.5" font-weight="700" fill="#000" text-anchor="start">데일리마켓 (우리가 그리는 화면)</text><rect x="50" y="100" width="160" height="48" rx="0" fill="#fff" stroke="#000"/><text x="130.0" y="120" font-size="10.5" font-weight="700" fill="#000" text-anchor="middle">SC-01</text><text x="130.0" y="138" font-size="12.5" font-weight="400" fill="#000" text-anchor="middle">메인</text><rect x="230" y="100" width="160" height="48" rx="0" fill="#fff" stroke="#000"/><text x="310.0" y="120" font-size="10.5" font-weight="700" fill="#000" text-anchor="middle">SC-02</text><text x="310.0" y="138" font-size="12.5" font-weight="400" fill="#000" text-anchor="middle">상품 목록</text><rect x="410" y="100" width="160" height="48" rx="0" fill="#fff" stroke="#000"/><text x="490.0" y="120" font-size="10.5" font-weight="700" fill="#000" text-anchor="middle">SC-03</text><text x="490.0" y="138" font-size="12.5" font-weight="400" fill="#000" text-anchor="middle">상품 상세</text><rect x="50" y="162" width="160" height="48" rx="0" fill="#fff" stroke="#000"/><text x="130.0" y="182" font-size="10.5" font-weight="700" fill="#000" text-anchor="middle">SC-04</text><text x="130.0" y="200" font-size="12.5" font-weight="400" fill="#000" text-anchor="middle">장바구니</text><rect x="230" y="162" width="160" height="48" rx="0" fill="#fff" stroke="#000"/><text x="310.0" y="182" font-size="10.5" font-weight="700" fill="#000" text-anchor="middle">SC-05</text><text x="310.0" y="200" font-size="12.5" font-weight="400" fill="#000" text-anchor="middle">주문 · 결제</text><rect x="680" y="150" width="184" height="60" rx="0" fill="#fff" stroke="#000" stroke-dasharray="5 4"/><text x="772" y="172" font-size="10.5" font-weight="700" fill="#000" text-anchor="middle">«외부»</text><text x="772" y="190" font-size="12.5" font-weight="400" fill="#000" text-anchor="middle">PG 결제창</text><line x1="390" y1="172" x2="676" y2="172" stroke="#000" marker-end="url(#on)"/><line x1="680" y1="198" x2="394" y2="198" stroke="#000" marker-end="url(#on)"/><text x="500" y="164" font-size="10.5" font-weight="400" fill="#555" text-anchor="middle">결제 요청</text><text x="500" y="190" font-size="10.5" font-weight="400" fill="#555" text-anchor="middle">승인 결과</text><text x="20" y="248" font-size="11.5" font-weight="400" fill="#555" text-anchor="start">외부 화면도 목록에서 빼지 않습니다. 빼면 결제 단계가 통째로 비어 보입니다.</text><text x="20" y="268" font-size="11.5" font-weight="400" fill="#555" text-anchor="start">프로토타입에서도 결제창을 그리지 않고 호출한다는 표시만 남깁니다.</text></svg>